<?xml version="1.0" encoding="UTF-8" standalone="no"?>
<!DOCTYPE svg PUBLIC "-//W3C//DTD SVG 1.1//EN"
 "http://www.w3.org/Graphics/SVG/1.1/DTD/svg11.dtd">
<!-- Generated by graphviz version 10.0.1 (20240210.2158)
 -->
<!-- Pages: 1 -->
<svg width="544pt" height="340pt"
 viewBox="0.00 0.00 544.00 339.50" xmlns="http://www.w3.org/2000/svg" xmlns:xlink="http://www.w3.org/1999/xlink">
<g id="graph0" class="graph" transform="scale(1 1) rotate(0) translate(4 335.5)">
<polygon fill="white" stroke="none" points="-4,4 -4,-335.5 540,-335.5 540,4 -4,4"/>
<text text-anchor="middle" x="268" y="-6.45" font-family="Times New Roman,serif" font-size="14.00">{ x = A ! B &amp; ~false; y = ~D ; z = ~A ! C; w = C &amp; ~true }</text>
<g id="clust1" class="cluster">
<title>cluster01</title>
<polygon fill="none" stroke="black" points="8,-31.75 8,-323.5 150,-323.5 150,-31.75 8,-31.75"/>
<text text-anchor="middle" x="79" y="-306.2" font-family="Times New Roman,serif" font-size="14.00">x</text>
</g>
<g id="clust2" class="cluster">
<title>cluster02</title>
<polygon fill="none" stroke="black" points="158,-175.75 158,-323.5 228,-323.5 228,-175.75 158,-175.75"/>
<text text-anchor="middle" x="193" y="-306.2" font-family="Times New Roman,serif" font-size="14.00">y</text>
</g>
<g id="clust3" class="cluster">
<title>cluster03</title>
<polygon fill="none" stroke="black" points="236,-103.75 236,-323.5 378,-323.5 378,-103.75 236,-103.75"/>
<text text-anchor="middle" x="307" y="-306.2" font-family="Times New Roman,serif" font-size="14.00">z</text>
</g>
<g id="clust4" class="cluster">
<title>cluster04</title>
<polygon fill="none" stroke="black" points="386,-103.75 386,-323.5 528,-323.5 528,-103.75 386,-103.75"/>
<text text-anchor="middle" x="457" y="-306.2" font-family="Times New Roman,serif" font-size="14.00">w</text>
</g>
<!-- n001 -->
<g id="node1" class="node">
<title>n001</title>
<ellipse fill="none" stroke="black" cx="79" cy="-273.75" rx="27" ry="18"/>
<text text-anchor="middle" x="79" y="-268.32" font-family="Times New Roman,serif" font-size="14.00">!</text>
</g>
<!-- n002 -->
<g id="node2" class="node">
<title>n002</title>
<ellipse fill="none" stroke="black" cx="43" cy="-201.75" rx="27" ry="18"/>
<text text-anchor="middle" x="43" y="-196.32" font-family="Times New Roman,serif" font-size="14.00">A</text>
</g>
<!-- n001&#45;&#45;n002 -->
<g id="edge1" class="edge">
<title>n001&#45;&#45;n002</title>
<path fill="none" stroke="black" d="M70.65,-256.51C64.83,-245.21 57.11,-230.19 51.3,-218.9"/>
</g>
<!-- n003 -->
<g id="node3" class="node">
<title>n003</title>
<ellipse fill="none" stroke="black" cx="115" cy="-201.75" rx="27" ry="18"/>
<text text-anchor="middle" x="115" y="-196.32" font-family="Times New Roman,serif" font-size="14.00">&amp;</text>
</g>
<!-- n001&#45;&#45;n003 -->
<g id="edge2" class="edge">
<title>n001&#45;&#45;n003</title>
<path fill="none" stroke="black" d="M87.35,-256.51C93.17,-245.21 100.89,-230.19 106.7,-218.9"/>
</g>
<!-- n004 -->
<g id="node4" class="node">
<title>n004</title>
<ellipse fill="none" stroke="black" cx="43" cy="-129.75" rx="27" ry="18"/>
<text text-anchor="middle" x="43" y="-124.33" font-family="Times New Roman,serif" font-size="14.00">B</text>
</g>
<!-- n003&#45;&#45;n004 -->
<g id="edge3" class="edge">
<title>n003&#45;&#45;n004</title>
<path fill="none" stroke="black" d="M100.08,-186.25C87.72,-174.23 70.25,-157.24 57.9,-145.24"/>
</g>
<!-- n005 -->
<g id="node5" class="node">
<title>n005</title>
<ellipse fill="none" stroke="black" cx="115" cy="-129.75" rx="27" ry="18"/>
<text text-anchor="middle" x="115" y="-124.33" font-family="Times New Roman,serif" font-size="14.00">~</text>
</g>
<!-- n003&#45;&#45;n005 -->
<g id="edge4" class="edge">
<title>n003&#45;&#45;n005</title>
<path fill="none" stroke="black" d="M115,-183.45C115,-172.6 115,-158.67 115,-147.85"/>
</g>
<!-- n006 -->
<g id="node6" class="node">
<title>n006</title>
<ellipse fill="none" stroke="black" cx="115" cy="-57.75" rx="27" ry="18"/>
<text text-anchor="middle" x="115" y="-52.33" font-family="Times New Roman,serif" font-size="14.00">f</text>
</g>
<!-- n005&#45;&#45;n006 -->
<g id="edge5" class="edge">
<title>n005&#45;&#45;n006</title>
<path fill="none" stroke="black" d="M115,-111.45C115,-100.6 115,-86.67 115,-75.85"/>
</g>
<!-- n007 -->
<g id="node7" class="node">
<title>n007</title>
<ellipse fill="none" stroke="black" cx="193" cy="-273.75" rx="27" ry="18"/>
<text text-anchor="middle" x="193" y="-268.32" font-family="Times New Roman,serif" font-size="14.00">~</text>
</g>
<!-- n008 -->
<g id="node8" class="node">
<title>n008</title>
<ellipse fill="none" stroke="black" cx="193" cy="-201.75" rx="27" ry="18"/>
<text text-anchor="middle" x="193" y="-196.32" font-family="Times New Roman,serif" font-size="14.00">D</text>
</g>
<!-- n007&#45;&#45;n008 -->
<g id="edge6" class="edge">
<title>n007&#45;&#45;n008</title>
<path fill="none" stroke="black" d="M193,-255.45C193,-244.6 193,-230.67 193,-219.85"/>
</g>
<!-- n009 -->
<g id="node9" class="node">
<title>n009</title>
<ellipse fill="none" stroke="black" cx="307" cy="-273.75" rx="27" ry="18"/>
<text text-anchor="middle" x="307" y="-268.32" font-family="Times New Roman,serif" font-size="14.00">!</text>
</g>
<!-- n010 -->
<g id="node10" class="node">
<title>n010</title>
<ellipse fill="none" stroke="black" cx="271" cy="-201.75" rx="27" ry="18"/>
<text text-anchor="middle" x="271" y="-196.32" font-family="Times New Roman,serif" font-size="14.00">~</text>
</g>
<!-- n009&#45;&#45;n010 -->
<g id="edge7" class="edge">
<title>n009&#45;&#45;n010</title>
<path fill="none" stroke="black" d="M298.65,-256.51C292.83,-245.21 285.11,-230.19 279.3,-218.9"/>
</g>
<!-- n011 -->
<g id="node11" class="node">
<title>n011</title>
<ellipse fill="none" stroke="black" cx="343" cy="-201.75" rx="27" ry="18"/>
<text text-anchor="middle" x="343" y="-196.32" font-family="Times New Roman,serif" font-size="14.00">C</text>
</g>
<!-- n009&#45;&#45;n011 -->
<g id="edge8" class="edge">
<title>n009&#45;&#45;n011</title>
<path fill="none" stroke="black" d="M315.35,-256.51C321.17,-245.21 328.89,-230.19 334.7,-218.9"/>
</g>
<!-- n012 -->
<g id="node12" class="node">
<title>n012</title>
<ellipse fill="none" stroke="black" cx="271" cy="-129.75" rx="27" ry="18"/>
<text text-anchor="middle" x="271" y="-124.33" font-family="Times New Roman,serif" font-size="14.00">A</text>
</g>
<!-- n010&#45;&#45;n012 -->
<g id="edge9" class="edge">
<title>n010&#45;&#45;n012</title>
<path fill="none" stroke="black" d="M271,-183.45C271,-172.6 271,-158.67 271,-147.85"/>
</g>
<!-- n013 -->
<g id="node13" class="node">
<title>n013</title>
<ellipse fill="none" stroke="black" cx="457" cy="-273.75" rx="27" ry="18"/>
<text text-anchor="middle" x="457" y="-268.32" font-family="Times New Roman,serif" font-size="14.00">&amp;</text>
</g>
<!-- n014 -->
<g id="node14" class="node">
<title>n014</title>
<ellipse fill="none" stroke="black" cx="421" cy="-201.75" rx="27" ry="18"/>
<text text-anchor="middle" x="421" y="-196.32" font-family="Times New Roman,serif" font-size="14.00">C</text>
</g>
<!-- n013&#45;&#45;n014 -->
<g id="edge10" class="edge">
<title>n013&#45;&#45;n014</title>
<path fill="none" stroke="black" d="M448.65,-256.51C442.83,-245.21 435.11,-230.19 429.3,-218.9"/>
</g>
<!-- n015 -->
<g id="node15" class="node">
<title>n015</title>
<ellipse fill="none" stroke="black" cx="493" cy="-201.75" rx="27" ry="18"/>
<text text-anchor="middle" x="493" y="-196.32" font-family="Times New Roman,serif" font-size="14.00">~</text>
</g>
<!-- n013&#45;&#45;n015 -->
<g id="edge11" class="edge">
<title>n013&#45;&#45;n015</title>
<path fill="none" stroke="black" d="M465.35,-256.51C471.17,-245.21 478.89,-230.19 484.7,-218.9"/>
</g>
<!-- n016 -->
<g id="node16" class="node">
<title>n016</title>
<ellipse fill="none" stroke="black" cx="493" cy="-129.75" rx="27" ry="18"/>
<text text-anchor="middle" x="493" y="-124.33" font-family="Times New Roman,serif" font-size="14.00">t</text>
</g>
<!-- n015&#45;&#45;n016 -->
<g id="edge12" class="edge">
<title>n015&#45;&#45;n016</title>
<path fill="none" stroke="black" d="M493,-183.45C493,-172.6 493,-158.67 493,-147.85"/>
</g>
</g>
</svg>
