<?xml version="1.0" encoding="UTF-8" standalone="no"?>
<!DOCTYPE svg PUBLIC "-//W3C//DTD SVG 1.1//EN"
 "http://www.w3.org/Graphics/SVG/1.1/DTD/svg11.dtd">
<!-- Generated by graphviz version 10.0.1 (20240210.2158)
 -->
<!-- Pages: 1 -->
<svg width="244pt" height="268pt"
 viewBox="0.00 0.00 244.00 267.50" xmlns="http://www.w3.org/2000/svg" xmlns:xlink="http://www.w3.org/1999/xlink">
<g id="graph0" class="graph" transform="scale(1 1) rotate(0) translate(4 263.5)">
<polygon fill="white" stroke="none" points="-4,4 -4,-263.5 240,-263.5 240,4 -4,4"/>
<text text-anchor="middle" x="118" y="-6.45" font-family="Times New Roman,serif" font-size="14.00">{ y = ~D ; z = A &amp; ~C }</text>
<g id="clust1" class="cluster">
<title>cluster01</title>
<polygon fill="none" stroke="black" points="8,-103.75 8,-251.5 78,-251.5 78,-103.75 8,-103.75"/>
<text text-anchor="middle" x="43" y="-234.2" font-family="Times New Roman,serif" font-size="14.00">y</text>
</g>
<g id="clust2" class="cluster">
<title>cluster02</title>
<polygon fill="none" stroke="black" points="86,-31.75 86,-251.5 228,-251.5 228,-31.75 86,-31.75"/>
<text text-anchor="middle" x="157" y="-234.2" font-family="Times New Roman,serif" font-size="14.00">z</text>
</g>
<!-- n001 -->
<g id="node1" class="node">
<title>n001</title>
<ellipse fill="none" stroke="black" cx="43" cy="-201.75" rx="27" ry="18"/>
<text text-anchor="middle" x="43" y="-196.32" font-family="Times New Roman,serif" font-size="14.00">~</text>
</g>
<!-- n002 -->
<g id="node2" class="node">
<title>n002</title>
<ellipse fill="none" stroke="black" cx="43" cy="-129.75" rx="27" ry="18"/>
<text text-anchor="middle" x="43" y="-124.33" font-family="Times New Roman,serif" font-size="14.00">D</text>
</g>
<!-- n001&#45;&#45;n002 -->
<g id="edge1" class="edge">
<title>n001&#45;&#45;n002</title>
<path fill="none" stroke="black" d="M43,-183.45C43,-172.6 43,-158.67 43,-147.85"/>
</g>
<!-- n003 -->
<g id="node3" class="node">
<title>n003</title>
<ellipse fill="none" stroke="black" cx="157" cy="-201.75" rx="27" ry="18"/>
<text text-anchor="middle" x="157" y="-196.32" font-family="Times New Roman,serif" font-size="14.00">&amp;</text>
</g>
<!-- n004 -->
<g id="node4" class="node">
<title>n004</title>
<ellipse fill="none" stroke="black" cx="121" cy="-129.75" rx="27" ry="18"/>
<text text-anchor="middle" x="121" y="-124.33" font-family="Times New Roman,serif" font-size="14.00">A</text>
</g>
<!-- n003&#45;&#45;n004 -->
<g id="edge2" class="edge">
<title>n003&#45;&#45;n004</title>
<path fill="none" stroke="black" d="M148.65,-184.51C142.83,-173.21 135.11,-158.19 129.3,-146.9"/>
</g>
<!-- n005 -->
<g id="node5" class="node">
<title>n005</title>
<ellipse fill="none" stroke="black" cx="193" cy="-129.75" rx="27" ry="18"/>
<text text-anchor="middle" x="193" y="-124.33" font-family="Times New Roman,serif" font-size="14.00">~</text>
</g>
<!-- n003&#45;&#45;n005 -->
<g id="edge3" class="edge">
<title>n003&#45;&#45;n005</title>
<path fill="none" stroke="black" d="M165.35,-184.51C171.17,-173.21 178.89,-158.19 184.7,-146.9"/>
</g>
<!-- n006 -->
<g id="node6" class="node">
<title>n006</title>
<ellipse fill="none" stroke="black" cx="193" cy="-57.75" rx="27" ry="18"/>
<text text-anchor="middle" x="193" y="-52.33" font-family="Times New Roman,serif" font-size="14.00">C</text>
</g>
<!-- n005&#45;&#45;n006 -->
<g id="edge4" class="edge">
<title>n005&#45;&#45;n006</title>
<path fill="none" stroke="black" d="M193,-111.45C193,-100.6 193,-86.67 193,-75.85"/>
</g>
</g>
</svg>
