<?xml version="1.0" encoding="UTF-8" standalone="no"?>
<!DOCTYPE svg PUBLIC "-//W3C//DTD SVG 1.1//EN"
 "http://www.w3.org/Graphics/SVG/1.1/DTD/svg11.dtd">
<!-- Generated by graphviz version 10.0.1 (20240210.2158)
 -->
<!-- Pages: 1 -->
<svg width="494pt" height="428pt"
 viewBox="0.00 0.00 494.00 427.75" xmlns="http://www.w3.org/2000/svg" xmlns:xlink="http://www.w3.org/1999/xlink">
<g id="graph0" class="graph" transform="scale(1 1) rotate(0) translate(4 423.75)">
<polygon fill="white" stroke="none" points="-4,4 -4,-423.75 490,-423.75 490,4 -4,4"/>
<text text-anchor="middle" x="243" y="-6.45" font-family="Times New Roman,serif" font-size="14.00">{ x = A ! B &amp; ~false; y = ~D; z = ~A ! C; w = C &amp; ~true }</text>
<!-- n001 -->
<g id="node1" class="node">
<title>n001</title>
<ellipse fill="none" stroke="black" cx="207" cy="-401.75" rx="42.08" ry="18"/>
<text text-anchor="middle" x="207" y="-396.32" font-family="Times New Roman,serif" font-size="14.00">program</text>
</g>
<!-- n002 -->
<g id="node2" class="node">
<title>n002</title>
<ellipse fill="none" stroke="black" cx="99" cy="-329.75" rx="27" ry="18"/>
<text text-anchor="middle" x="99" y="-324.32" font-family="Times New Roman,serif" font-size="14.00">x</text>
</g>
<!-- n001&#45;&#45;n002 -->
<g id="edge1" class="edge">
<title>n001&#45;&#45;n002</title>
<path fill="none" stroke="black" d="M184.62,-386.25C164.85,-373.43 136.35,-354.96 117.75,-342.9"/>
</g>
<!-- n003 -->
<g id="node3" class="node">
<title>n003</title>
<ellipse fill="none" stroke="black" cx="171" cy="-329.75" rx="27" ry="18"/>
<text text-anchor="middle" x="171" y="-324.32" font-family="Times New Roman,serif" font-size="14.00">y</text>
</g>
<!-- n001&#45;&#45;n003 -->
<g id="edge2" class="edge">
<title>n001&#45;&#45;n003</title>
<path fill="none" stroke="black" d="M198.29,-383.8C192.54,-372.64 185.06,-358.09 179.39,-347.06"/>
</g>
<!-- n004 -->
<g id="node4" class="node">
<title>n004</title>
<ellipse fill="none" stroke="black" cx="243" cy="-329.75" rx="27" ry="18"/>
<text text-anchor="middle" x="243" y="-324.32" font-family="Times New Roman,serif" font-size="14.00">z</text>
</g>
<!-- n001&#45;&#45;n004 -->
<g id="edge3" class="edge">
<title>n001&#45;&#45;n004</title>
<path fill="none" stroke="black" d="M215.71,-383.8C221.46,-372.64 228.94,-358.09 234.61,-347.06"/>
</g>
<!-- n005 -->
<g id="node5" class="node">
<title>n005</title>
<ellipse fill="none" stroke="black" cx="351" cy="-329.75" rx="27" ry="18"/>
<text text-anchor="middle" x="351" y="-324.32" font-family="Times New Roman,serif" font-size="14.00">w</text>
</g>
<!-- n001&#45;&#45;n005 -->
<g id="edge4" class="edge">
<title>n001&#45;&#45;n005</title>
<path fill="none" stroke="black" d="M234.09,-387.58C261.79,-374.12 304.25,-353.47 329.66,-341.12"/>
</g>
<!-- n006 -->
<g id="node6" class="node">
<title>n006</title>
<ellipse fill="none" stroke="black" cx="99" cy="-257.75" rx="27" ry="18"/>
<text text-anchor="middle" x="99" y="-252.32" font-family="Times New Roman,serif" font-size="14.00">!</text>
</g>
<!-- n002&#45;&#45;n006 -->
<g id="edge5" class="edge">
<title>n002&#45;&#45;n006</title>
<path fill="none" stroke="black" d="M99,-311.45C99,-300.6 99,-286.67 99,-275.85"/>
</g>
<!-- n012 -->
<g id="node12" class="node">
<title>n012</title>
<ellipse fill="none" stroke="black" cx="171" cy="-257.75" rx="27" ry="18"/>
<text text-anchor="middle" x="171" y="-252.32" font-family="Times New Roman,serif" font-size="14.00">~</text>
</g>
<!-- n003&#45;&#45;n012 -->
<g id="edge11" class="edge">
<title>n003&#45;&#45;n012</title>
<path fill="none" stroke="black" d="M171,-311.45C171,-300.6 171,-286.67 171,-275.85"/>
</g>
<!-- n014 -->
<g id="node14" class="node">
<title>n014</title>
<ellipse fill="none" stroke="black" cx="243" cy="-257.75" rx="27" ry="18"/>
<text text-anchor="middle" x="243" y="-252.32" font-family="Times New Roman,serif" font-size="14.00">!</text>
</g>
<!-- n004&#45;&#45;n014 -->
<g id="edge13" class="edge">
<title>n004&#45;&#45;n014</title>
<path fill="none" stroke="black" d="M243,-311.45C243,-300.6 243,-286.67 243,-275.85"/>
</g>
<!-- n018 -->
<g id="node18" class="node">
<title>n018</title>
<ellipse fill="none" stroke="black" cx="387" cy="-257.75" rx="27" ry="18"/>
<text text-anchor="middle" x="387" y="-252.32" font-family="Times New Roman,serif" font-size="14.00">&amp;</text>
</g>
<!-- n005&#45;&#45;n018 -->
<g id="edge17" class="edge">
<title>n005&#45;&#45;n018</title>
<path fill="none" stroke="black" d="M359.35,-312.51C365.17,-301.21 372.89,-286.19 378.7,-274.9"/>
</g>
<!-- n007 -->
<g id="node7" class="node">
<title>n007</title>
<ellipse fill="none" stroke="black" cx="27" cy="-185.75" rx="27" ry="18"/>
<text text-anchor="middle" x="27" y="-180.32" font-family="Times New Roman,serif" font-size="14.00">A</text>
</g>
<!-- n006&#45;&#45;n007 -->
<g id="edge6" class="edge">
<title>n006&#45;&#45;n007</title>
<path fill="none" stroke="black" d="M84.08,-242.25C71.72,-230.23 54.25,-213.24 41.9,-201.24"/>
</g>
<!-- n008 -->
<g id="node8" class="node">
<title>n008</title>
<ellipse fill="none" stroke="black" cx="99" cy="-185.75" rx="27" ry="18"/>
<text text-anchor="middle" x="99" y="-180.32" font-family="Times New Roman,serif" font-size="14.00">&amp;</text>
</g>
<!-- n006&#45;&#45;n008 -->
<g id="edge7" class="edge">
<title>n006&#45;&#45;n008</title>
<path fill="none" stroke="black" d="M99,-239.45C99,-228.6 99,-214.67 99,-203.85"/>
</g>
<!-- n009 -->
<g id="node9" class="node">
<title>n009</title>
<ellipse fill="none" stroke="black" cx="63" cy="-113.75" rx="27" ry="18"/>
<text text-anchor="middle" x="63" y="-108.33" font-family="Times New Roman,serif" font-size="14.00">B</text>
</g>
<!-- n008&#45;&#45;n009 -->
<g id="edge8" class="edge">
<title>n008&#45;&#45;n009</title>
<path fill="none" stroke="black" d="M90.65,-168.51C84.83,-157.21 77.11,-142.19 71.3,-130.9"/>
</g>
<!-- n010 -->
<g id="node10" class="node">
<title>n010</title>
<ellipse fill="none" stroke="black" cx="135" cy="-113.75" rx="27" ry="18"/>
<text text-anchor="middle" x="135" y="-108.33" font-family="Times New Roman,serif" font-size="14.00">~</text>
</g>
<!-- n008&#45;&#45;n010 -->
<g id="edge9" class="edge">
<title>n008&#45;&#45;n010</title>
<path fill="none" stroke="black" d="M107.35,-168.51C113.17,-157.21 120.89,-142.19 126.7,-130.9"/>
</g>
<!-- n011 -->
<g id="node11" class="node">
<title>n011</title>
<ellipse fill="none" stroke="black" cx="135" cy="-41.75" rx="27" ry="18"/>
<text text-anchor="middle" x="135" y="-36.33" font-family="Times New Roman,serif" font-size="14.00">f</text>
</g>
<!-- n010&#45;&#45;n011 -->
<g id="edge10" class="edge">
<title>n010&#45;&#45;n011</title>
<path fill="none" stroke="black" d="M135,-95.45C135,-84.6 135,-70.67 135,-59.85"/>
</g>
<!-- n013 -->
<g id="node13" class="node">
<title>n013</title>
<ellipse fill="none" stroke="black" cx="171" cy="-185.75" rx="27" ry="18"/>
<text text-anchor="middle" x="171" y="-180.32" font-family="Times New Roman,serif" font-size="14.00">D</text>
</g>
<!-- n012&#45;&#45;n013 -->
<g id="edge12" class="edge">
<title>n012&#45;&#45;n013</title>
<path fill="none" stroke="black" d="M171,-239.45C171,-228.6 171,-214.67 171,-203.85"/>
</g>
<!-- n015 -->
<g id="node15" class="node">
<title>n015</title>
<ellipse fill="none" stroke="black" cx="243" cy="-185.75" rx="27" ry="18"/>
<text text-anchor="middle" x="243" y="-180.32" font-family="Times New Roman,serif" font-size="14.00">~</text>
</g>
<!-- n014&#45;&#45;n015 -->
<g id="edge14" class="edge">
<title>n014&#45;&#45;n015</title>
<path fill="none" stroke="black" d="M243,-239.45C243,-228.6 243,-214.67 243,-203.85"/>
</g>
<!-- n016 -->
<g id="node16" class="node">
<title>n016</title>
<ellipse fill="none" stroke="black" cx="315" cy="-185.75" rx="27" ry="18"/>
<text text-anchor="middle" x="315" y="-180.32" font-family="Times New Roman,serif" font-size="14.00">C</text>
</g>
<!-- n014&#45;&#45;n016 -->
<g id="edge15" class="edge">
<title>n014&#45;&#45;n016</title>
<path fill="none" stroke="black" d="M257.92,-242.25C270.28,-230.23 287.75,-213.24 300.1,-201.24"/>
</g>
<!-- n017 -->
<g id="node17" class="node">
<title>n017</title>
<ellipse fill="none" stroke="black" cx="243" cy="-113.75" rx="27" ry="18"/>
<text text-anchor="middle" x="243" y="-108.33" font-family="Times New Roman,serif" font-size="14.00">A</text>
</g>
<!-- n015&#45;&#45;n017 -->
<g id="edge16" class="edge">
<title>n015&#45;&#45;n017</title>
<path fill="none" stroke="black" d="M243,-167.45C243,-156.6 243,-142.67 243,-131.85"/>
</g>
<!-- n019 -->
<g id="node19" class="node">
<title>n019</title>
<ellipse fill="none" stroke="black" cx="387" cy="-185.75" rx="27" ry="18"/>
<text text-anchor="middle" x="387" y="-180.32" font-family="Times New Roman,serif" font-size="14.00">C</text>
</g>
<!-- n018&#45;&#45;n019 -->
<g id="edge18" class="edge">
<title>n018&#45;&#45;n019</title>
<path fill="none" stroke="black" d="M387,-239.45C387,-228.6 387,-214.67 387,-203.85"/>
</g>
<!-- n020 -->
<g id="node20" class="node">
<title>n020</title>
<ellipse fill="none" stroke="black" cx="459" cy="-185.75" rx="27" ry="18"/>
<text text-anchor="middle" x="459" y="-180.32" font-family="Times New Roman,serif" font-size="14.00">~</text>
</g>
<!-- n018&#45;&#45;n020 -->
<g id="edge19" class="edge">
<title>n018&#45;&#45;n020</title>
<path fill="none" stroke="black" d="M401.92,-242.25C414.28,-230.23 431.75,-213.24 444.1,-201.24"/>
</g>
<!-- n021 -->
<g id="node21" class="node">
<title>n021</title>
<ellipse fill="none" stroke="black" cx="459" cy="-113.75" rx="27" ry="18"/>
<text text-anchor="middle" x="459" y="-108.33" font-family="Times New Roman,serif" font-size="14.00">t</text>
</g>
<!-- n020&#45;&#45;n021 -->
<g id="edge20" class="edge">
<title>n020&#45;&#45;n021</title>
<path fill="none" stroke="black" d="M459,-167.45C459,-156.6 459,-142.67 459,-131.85"/>
</g>
</g>
</svg>
