<?xml version="1.0" encoding="UTF-8" standalone="no"?>
<!DOCTYPE svg PUBLIC "-//W3C//DTD SVG 1.1//EN"
 "http://www.w3.org/Graphics/SVG/1.1/DTD/svg11.dtd">
<!-- Generated by graphviz version 10.0.1 (20240210.2158)
 -->
<!-- Pages: 1 -->
<svg width="166pt" height="340pt"
 viewBox="0.00 0.00 166.00 339.50" xmlns="http://www.w3.org/2000/svg" xmlns:xlink="http://www.w3.org/1999/xlink">
<g id="graph0" class="graph" transform="scale(1 1) rotate(0) translate(4 335.5)">
<polygon fill="white" stroke="none" points="-4,4 -4,-335.5 162,-335.5 162,4 -4,4"/>
<text text-anchor="middle" x="79" y="-6.45" font-family="Times New Roman,serif" font-size="14.00">{ x = A ! B &amp; ~false }</text>
<g id="clust1" class="cluster">
<title>cluster01</title>
<polygon fill="none" stroke="black" points="8,-31.75 8,-323.5 150,-323.5 150,-31.75 8,-31.75"/>
<text text-anchor="middle" x="79" y="-306.2" font-family="Times New Roman,serif" font-size="14.00">x</text>
</g>
<!-- n001 -->
<g id="node1" class="node">
<title>n001</title>
<ellipse fill="none" stroke="black" cx="79" cy="-273.75" rx="27" ry="18"/>
<text text-anchor="middle" x="79" y="-268.32" font-family="Times New Roman,serif" font-size="14.00">!</text>
</g>
<!-- n002 -->
<g id="node2" class="node">
<title>n002</title>
<ellipse fill="none" stroke="black" cx="43" cy="-201.75" rx="27" ry="18"/>
<text text-anchor="middle" x="43" y="-196.32" font-family="Times New Roman,serif" font-size="14.00">A</text>
</g>
<!-- n001&#45;&#45;n002 -->
<g id="edge1" class="edge">
<title>n001&#45;&#45;n002</title>
<path fill="none" stroke="black" d="M70.65,-256.51C64.83,-245.21 57.11,-230.19 51.3,-218.9"/>
</g>
<!-- n003 -->
<g id="node3" class="node">
<title>n003</title>
<ellipse fill="none" stroke="black" cx="115" cy="-201.75" rx="27" ry="18"/>
<text text-anchor="middle" x="115" y="-196.32" font-family="Times New Roman,serif" font-size="14.00">&amp;</text>
</g>
<!-- n001&#45;&#45;n003 -->
<g id="edge2" class="edge">
<title>n001&#45;&#45;n003</title>
<path fill="none" stroke="black" d="M87.35,-256.51C93.17,-245.21 100.89,-230.19 106.7,-218.9"/>
</g>
<!-- n004 -->
<g id="node4" class="node">
<title>n004</title>
<ellipse fill="none" stroke="black" cx="43" cy="-129.75" rx="27" ry="18"/>
<text text-anchor="middle" x="43" y="-124.33" font-family="Times New Roman,serif" font-size="14.00">B</text>
</g>
<!-- n003&#45;&#45;n004 -->
<g id="edge3" class="edge">
<title>n003&#45;&#45;n004</title>
<path fill="none" stroke="black" d="M100.08,-186.25C87.72,-174.23 70.25,-157.24 57.9,-145.24"/>
</g>
<!-- n005 -->
<g id="node5" class="node">
<title>n005</title>
<ellipse fill="none" stroke="black" cx="115" cy="-129.75" rx="27" ry="18"/>
<text text-anchor="middle" x="115" y="-124.33" font-family="Times New Roman,serif" font-size="14.00">~</text>
</g>
<!-- n003&#45;&#45;n005 -->
<g id="edge4" class="edge">
<title>n003&#45;&#45;n005</title>
<path fill="none" stroke="black" d="M115,-183.45C115,-172.6 115,-158.67 115,-147.85"/>
</g>
<!-- n006 -->
<g id="node6" class="node">
<title>n006</title>
<ellipse fill="none" stroke="black" cx="115" cy="-57.75" rx="27" ry="18"/>
<text text-anchor="middle" x="115" y="-52.33" font-family="Times New Roman,serif" font-size="14.00">f</text>
</g>
<!-- n005&#45;&#45;n006 -->
<g id="edge5" class="edge">
<title>n005&#45;&#45;n006</title>
<path fill="none" stroke="black" d="M115,-111.45C115,-100.6 115,-86.67 115,-75.85"/>
</g>
</g>
</svg>
