<?xml version="1.0" encoding="UTF-8" standalone="no"?>
<!DOCTYPE svg PUBLIC "-//W3C//DTD SVG 1.1//EN"
 "http://www.w3.org/Graphics/SVG/1.1/DTD/svg11.dtd">
<!-- Generated by graphviz version 10.0.1 (20240210.2158)
 -->
<!-- Title: G Pages: 1 -->
<svg width="534pt" height="133pt"
 viewBox="0.00 0.00 533.76 133.04" xmlns="http://www.w3.org/2000/svg" xmlns:xlink="http://www.w3.org/1999/xlink">
<g id="graph0" class="graph" transform="scale(1 1) rotate(0) translate(4 129.04)">
<title>G</title>
<polygon fill="white" stroke="none" points="-4,4 -4,-129.04 529.76,-129.04 529.76,4 -4,4"/>
<!-- s0 -->
<g id="node1" class="node">
<title>s0</title>
<ellipse fill="none" stroke="black" cx="118" cy="-37.29" rx="27" ry="18"/>
<text text-anchor="middle" x="118" y="-31.87" font-family="Times New Roman,serif" font-size="14.00">s0</text>
</g>
<!-- s1 -->
<g id="node2" class="node">
<title>s1</title>
<ellipse fill="none" stroke="black" cx="215.5" cy="-73.29" rx="27" ry="18"/>
<text text-anchor="middle" x="215.5" y="-67.87" font-family="Times New Roman,serif" font-size="14.00">s1</text>
</g>
<!-- s0&#45;&gt;s1 -->
<g id="edge1" class="edge">
<title>s0&#45;&gt;s1</title>
<path fill="none" stroke="black" d="M142.12,-46.01C153.73,-50.38 168.02,-55.77 180.83,-60.6"/>
<polygon fill="black" stroke="black" points="179.59,-63.87 190.18,-64.12 182.06,-57.32 179.59,-63.87"/>
<text text-anchor="middle" x="166.75" y="-59.74" font-family="Times New Roman,serif" font-size="14.00">b</text>
</g>
<!-- s2 -->
<g id="node3" class="node">
<title>s2</title>
<ellipse fill="none" stroke="black" cx="311.5" cy="-21.29" rx="27" ry="18"/>
<text text-anchor="middle" x="311.5" y="-15.87" font-family="Times New Roman,serif" font-size="14.00">s2</text>
</g>
<!-- s0&#45;&gt;s2 -->
<g id="edge2" class="edge">
<title>s0&#45;&gt;s2</title>
<path fill="none" stroke="black" d="M145.06,-34.63C158.1,-33.33 174.13,-31.78 188.5,-30.54 216.87,-28.09 248.98,-25.67 273.14,-23.92"/>
<polygon fill="black" stroke="black" points="273.08,-27.43 282.8,-23.22 272.57,-20.45 273.08,-27.43"/>
<text text-anchor="middle" x="215.5" y="-33.74" font-family="Times New Roman,serif" font-size="14.00">a</text>
</g>
<!-- s1&#45;&gt;s1 -->
<g id="edge3" class="edge">
<title>s1&#45;&gt;s1</title>
<path fill="none" stroke="black" d="M206.93,-90.7C205.33,-100.38 208.19,-109.29 215.5,-109.29 219.73,-109.29 222.47,-106.31 223.71,-101.93"/>
<polygon fill="black" stroke="black" points="227.2,-102.32 224.02,-92.21 220.21,-102.1 227.2,-102.32"/>
<text text-anchor="middle" x="215.5" y="-111.74" font-family="Times New Roman,serif" font-size="14.00">b</text>
</g>
<!-- s1&#45;&gt;s2 -->
<g id="edge4" class="edge">
<title>s1&#45;&gt;s2</title>
<path fill="none" stroke="black" d="M236.9,-62.01C249.58,-54.99 266.13,-45.84 280.32,-37.99"/>
<polygon fill="black" stroke="black" points="281.76,-41.19 288.82,-33.28 278.37,-35.06 281.76,-41.19"/>
<text text-anchor="middle" x="263.5" y="-51.74" font-family="Times New Roman,serif" font-size="14.00">a</text>
</g>
<!-- s2&#45;&gt;s2 -->
<g id="edge6" class="edge">
<title>s2&#45;&gt;s2</title>
<path fill="none" stroke="black" d="M302.93,-38.7C301.33,-48.38 304.19,-57.29 311.5,-57.29 315.73,-57.29 318.47,-54.31 319.71,-49.93"/>
<polygon fill="black" stroke="black" points="323.2,-50.32 320.02,-40.21 316.21,-50.1 323.2,-50.32"/>
<text text-anchor="middle" x="311.5" y="-59.74" font-family="Times New Roman,serif" font-size="14.00">a</text>
</g>
<!-- s3 -->
<g id="node4" class="node">
<title>s3</title>
<ellipse fill="none" stroke="black" cx="409" cy="-47.29" rx="27" ry="18"/>
<text text-anchor="middle" x="409" y="-41.87" font-family="Times New Roman,serif" font-size="14.00">s3</text>
</g>
<!-- s2&#45;&gt;s3 -->
<g id="edge5" class="edge">
<title>s2&#45;&gt;s3</title>
<path fill="none" stroke="black" d="M334.08,-31.3C341.11,-34.23 349.03,-37.21 356.5,-39.29 361.11,-40.57 366.01,-41.67 370.89,-42.59"/>
<polygon fill="black" stroke="black" points="370.14,-46.02 380.58,-44.22 371.3,-39.11 370.14,-46.02"/>
<text text-anchor="middle" x="360.25" y="-43.74" font-family="Times New Roman,serif" font-size="14.00">b</text>
</g>
<!-- s3&#45;&gt;s2 -->
<g id="edge8" class="edge">
<title>s3&#45;&gt;s2</title>
<path fill="none" stroke="black" d="M391.12,-33.49C383.35,-28.01 373.72,-22.35 364,-19.54 359.41,-18.21 354.49,-17.52 349.58,-17.24"/>
<polygon fill="black" stroke="black" points="349.8,-13.74 339.81,-17.28 349.83,-20.74 349.8,-13.74"/>
<text text-anchor="middle" x="360.25" y="-22.74" font-family="Times New Roman,serif" font-size="14.00">a</text>
</g>
<!-- s4 -->
<g id="node5" class="node">
<title>s4</title>
<ellipse fill="none" stroke="black" cx="502.63" cy="-47.29" rx="19.13" ry="19.13"/>
<ellipse fill="none" stroke="black" cx="502.63" cy="-47.29" rx="23.13" ry="23.13"/>
<text text-anchor="middle" x="502.63" y="-41.87" font-family="Times New Roman,serif" font-size="14.00">s4</text>
</g>
<!-- s3&#45;&gt;s4 -->
<g id="edge7" class="edge">
<title>s3&#45;&gt;s4</title>
<path fill="none" stroke="black" d="M436.01,-47.29C445.93,-47.29 457.38,-47.29 467.91,-47.29"/>
<polygon fill="black" stroke="black" points="467.77,-50.79 477.77,-47.29 467.77,-43.79 467.77,-50.79"/>
<text text-anchor="middle" x="457.75" y="-49.74" font-family="Times New Roman,serif" font-size="14.00">b</text>
</g>
<!-- s4&#45;&gt;s1 -->
<g id="edge9" class="edge">
<title>s4&#45;&gt;s1</title>
<path fill="none" stroke="black" d="M481.97,-58.04C475.56,-61.29 468.33,-64.68 461.5,-67.29 450.52,-71.49 447.57,-72.25 436,-74.29 369.6,-86.02 351.78,-86.72 284.5,-82.29 274.42,-81.63 263.56,-80.41 253.54,-79.09"/>
<polygon fill="black" stroke="black" points="254.14,-75.64 243.75,-77.72 253.17,-82.57 254.14,-75.64"/>
<text text-anchor="middle" x="360.25" y="-86.74" font-family="Times New Roman,serif" font-size="14.00">b</text>
</g>
<!-- s4&#45;&gt;s2 -->
<g id="edge10" class="edge">
<title>s4&#45;&gt;s2</title>
<path fill="none" stroke="black" d="M484.66,-32.25C472.17,-22.24 454.25,-9.96 436,-4.54 406.32,4.27 371.24,-2 346.06,-9.25"/>
<polygon fill="black" stroke="black" points="345.21,-5.84 336.69,-12.15 347.28,-12.53 345.21,-5.84"/>
<text text-anchor="middle" x="409" y="-7.74" font-family="Times New Roman,serif" font-size="14.00">a</text>
</g>
<!-- start -->
<g id="node6" class="node">
<title>start</title>
<ellipse fill="none" stroke="black" cx="27" cy="-37.29" rx="27" ry="18"/>
<text text-anchor="middle" x="27" y="-31.87" font-family="Times New Roman,serif" font-size="14.00">start</text>
</g>
<!-- start&#45;&gt;s0 -->
<g id="edge11" class="edge">
<title>start&#45;&gt;s0</title>
<path fill="none" stroke="black" d="M54.22,-37.29C62.12,-37.29 70.94,-37.29 79.43,-37.29"/>
<polygon fill="black" stroke="black" points="79.14,-40.79 89.14,-37.29 79.14,-33.79 79.14,-40.79"/>
</g>
</g>
</svg>
