<?xml version="1.0" encoding="UTF-8" standalone="no"?>
<!DOCTYPE svg PUBLIC "-//W3C//DTD SVG 1.1//EN"
 "http://www.w3.org/Graphics/SVG/1.1/DTD/svg11.dtd">
<!-- Generated by graphviz version 10.0.1 (20240210.2158)
 -->
<!-- Title: G Pages: 1 -->
<svg width="436pt" height="126pt"
 viewBox="0.00 0.00 436.26 126.00" xmlns="http://www.w3.org/2000/svg" xmlns:xlink="http://www.w3.org/1999/xlink">
<g id="graph0" class="graph" transform="scale(1 1) rotate(0) translate(4 122)">
<title>G</title>
<polygon fill="white" stroke="none" points="-4,4 -4,-122 432.26,-122 432.26,4 -4,4"/>
<!-- s0 -->
<g id="node1" class="node">
<title>s0</title>
<ellipse fill="none" stroke="black" cx="118" cy="-18" rx="27" ry="18"/>
<text text-anchor="middle" x="118" y="-12.57" font-family="Times New Roman,serif" font-size="14.00">s0</text>
</g>
<!-- s0&#45;&gt;s0 -->
<g id="edge1" class="edge">
<title>s0&#45;&gt;s0</title>
<path fill="none" stroke="black" d="M109.88,-35.41C108.36,-45.09 111.07,-54 118,-54 122.01,-54 124.6,-51.02 125.79,-46.64"/>
<polygon fill="black" stroke="black" points="129.28,-47.02 126.08,-36.92 122.28,-46.81 129.28,-47.02"/>
<text text-anchor="middle" x="118" y="-56.45" font-family="Times New Roman,serif" font-size="14.00">b</text>
</g>
<!-- s2 -->
<g id="node2" class="node">
<title>s2</title>
<ellipse fill="none" stroke="black" cx="214" cy="-64" rx="27" ry="18"/>
<text text-anchor="middle" x="214" y="-58.58" font-family="Times New Roman,serif" font-size="14.00">s2</text>
</g>
<!-- s0&#45;&gt;s2 -->
<g id="edge2" class="edge">
<title>s0&#45;&gt;s2</title>
<path fill="none" stroke="black" d="M140.33,-28.44C152.38,-34.34 167.69,-41.82 181.14,-48.41"/>
<polygon fill="black" stroke="black" points="179.55,-51.53 190.07,-52.78 182.63,-45.24 179.55,-51.53"/>
<text text-anchor="middle" x="166" y="-45.45" font-family="Times New Roman,serif" font-size="14.00">a</text>
</g>
<!-- s2&#45;&gt;s2 -->
<g id="edge4" class="edge">
<title>s2&#45;&gt;s2</title>
<path fill="none" stroke="black" d="M205.43,-81.41C203.83,-91.09 206.69,-100 214,-100 218.23,-100 220.97,-97.02 222.21,-92.64"/>
<polygon fill="black" stroke="black" points="225.7,-93.03 222.52,-82.92 218.71,-92.81 225.7,-93.03"/>
<text text-anchor="middle" x="214" y="-102.45" font-family="Times New Roman,serif" font-size="14.00">a</text>
</g>
<!-- s3 -->
<g id="node3" class="node">
<title>s3</title>
<ellipse fill="none" stroke="black" cx="311.5" cy="-100" rx="27" ry="18"/>
<text text-anchor="middle" x="311.5" y="-94.58" font-family="Times New Roman,serif" font-size="14.00">s3</text>
</g>
<!-- s2&#45;&gt;s3 -->
<g id="edge3" class="edge">
<title>s2&#45;&gt;s3</title>
<path fill="none" stroke="black" d="M229.45,-78.89C237.42,-86.07 247.93,-93.98 259,-98 263.45,-99.61 268.25,-100.65 273.08,-101.27"/>
<polygon fill="black" stroke="black" points="272.5,-104.74 282.72,-101.95 272.99,-97.76 272.5,-104.74"/>
<text text-anchor="middle" x="262.75" y="-101.45" font-family="Times New Roman,serif" font-size="14.00">b</text>
</g>
<!-- s3&#45;&gt;s2 -->
<g id="edge6" class="edge">
<title>s3&#45;&gt;s2</title>
<path fill="none" stroke="black" d="M289.82,-88.77C282.58,-85.11 274.3,-81.23 266.5,-78.25 261.46,-76.33 256.05,-74.54 250.69,-72.93"/>
<polygon fill="black" stroke="black" points="251.96,-69.65 241.39,-70.29 250.05,-76.39 251.96,-69.65"/>
<text text-anchor="middle" x="262.75" y="-81.45" font-family="Times New Roman,serif" font-size="14.00">a</text>
</g>
<!-- s4 -->
<g id="node4" class="node">
<title>s4</title>
<ellipse fill="none" stroke="black" cx="405.13" cy="-48" rx="19.13" ry="19.13"/>
<ellipse fill="none" stroke="black" cx="405.13" cy="-48" rx="23.13" ry="23.13"/>
<text text-anchor="middle" x="405.13" y="-42.58" font-family="Times New Roman,serif" font-size="14.00">s4</text>
</g>
<!-- s3&#45;&gt;s4 -->
<g id="edge5" class="edge">
<title>s3&#45;&gt;s4</title>
<path fill="none" stroke="black" d="M332.84,-88.46C345.1,-81.5 360.95,-72.51 374.58,-64.77"/>
<polygon fill="black" stroke="black" points="376.19,-67.88 383.16,-59.9 372.74,-61.79 376.19,-67.88"/>
<text text-anchor="middle" x="360.25" y="-76.45" font-family="Times New Roman,serif" font-size="14.00">b</text>
</g>
<!-- s4&#45;&gt;s0 -->
<g id="edge7" class="edge">
<title>s4&#45;&gt;s0</title>
<path fill="none" stroke="black" d="M381.82,-45.65C333.04,-40.52 216.45,-28.25 156.3,-21.92"/>
<polygon fill="black" stroke="black" points="156.88,-18.47 146.56,-20.9 156.14,-25.43 156.88,-18.47"/>
<text text-anchor="middle" x="262.75" y="-36.45" font-family="Times New Roman,serif" font-size="14.00">b</text>
</g>
<!-- s4&#45;&gt;s2 -->
<g id="edge8" class="edge">
<title>s4&#45;&gt;s2</title>
<path fill="none" stroke="black" d="M381.63,-49.61C357.58,-51.36 318.33,-54.3 284.5,-57.25 274.06,-58.16 262.74,-59.23 252.33,-60.24"/>
<polygon fill="black" stroke="black" points="252.18,-56.74 242.57,-61.2 252.86,-63.7 252.18,-56.74"/>
<text text-anchor="middle" x="311.5" y="-60.45" font-family="Times New Roman,serif" font-size="14.00">a</text>
</g>
<!-- start -->
<g id="node5" class="node">
<title>start</title>
<ellipse fill="none" stroke="black" cx="27" cy="-18" rx="27" ry="18"/>
<text text-anchor="middle" x="27" y="-12.57" font-family="Times New Roman,serif" font-size="14.00">start</text>
</g>
<!-- start&#45;&gt;s0 -->
<g id="edge9" class="edge">
<title>start&#45;&gt;s0</title>
<path fill="none" stroke="black" d="M54.22,-18C62.12,-18 70.94,-18 79.43,-18"/>
<polygon fill="black" stroke="black" points="79.14,-21.5 89.14,-18 79.14,-14.5 79.14,-21.5"/>
</g>
</g>
</svg>
