<?xml version="1.0" encoding="UTF-8" standalone="no"?>
<!DOCTYPE svg PUBLIC "-//W3C//DTD SVG 1.1//EN"
 "http://www.w3.org/Graphics/SVG/1.1/DTD/svg11.dtd">
<!-- Generated by graphviz version 10.0.1 (20240210.2158)
 -->
<!-- Title: G Pages: 1 -->
<svg width="1321pt" height="177pt"
 viewBox="0.00 0.00 1321.24 176.62" xmlns="http://www.w3.org/2000/svg" xmlns:xlink="http://www.w3.org/1999/xlink">
<g id="graph0" class="graph" transform="scale(1 1) rotate(0) translate(4 172.62)">
<title>G</title>
<polygon fill="white" stroke="none" points="-4,4 -4,-172.62 1317.24,-172.62 1317.24,4 -4,4"/>
<!-- s6 -->
<g id="node1" class="node">
<title>s6</title>
<ellipse fill="none" stroke="black" cx="118" cy="-27.62" rx="27" ry="18"/>
<text text-anchor="middle" x="118" y="-22.19" font-family="Times New Roman,serif" font-size="14.00">s6</text>
</g>
<!-- s4 -->
<g id="node2" class="node">
<title>s4</title>
<ellipse fill="none" stroke="black" cx="227.5" cy="-73.62" rx="27" ry="18"/>
<text text-anchor="middle" x="227.5" y="-68.19" font-family="Times New Roman,serif" font-size="14.00">s4</text>
</g>
<!-- s6&#45;&gt;s4 -->
<g id="edge1" class="edge">
<title>s6&#45;&gt;s4</title>
<path fill="none" stroke="black" d="M141.27,-37.15C156.55,-43.69 177.07,-52.47 194.15,-59.77"/>
<polygon fill="black" stroke="black" points="192.29,-62.79 202.86,-63.5 195.05,-56.35 192.29,-62.79"/>
<text text-anchor="middle" x="172.75" y="-57.07" font-family="Times New Roman,serif" font-size="14.00">eps</text>
</g>
<!-- s7 -->
<g id="node3" class="node">
<title>s7</title>
<ellipse fill="none" stroke="black" cx="665.5" cy="-27.62" rx="27" ry="18"/>
<text text-anchor="middle" x="665.5" y="-22.19" font-family="Times New Roman,serif" font-size="14.00">s7</text>
</g>
<!-- s6&#45;&gt;s7 -->
<g id="edge2" class="edge">
<title>s6&#45;&gt;s7</title>
<path fill="none" stroke="black" d="M144.04,-21.75C165.73,-17.19 198.01,-11.62 226.5,-11.62 226.5,-11.62 226.5,-11.62 557,-11.62 580.93,-11.62 607.53,-15.55 628.28,-19.51"/>
<polygon fill="black" stroke="black" points="627.48,-22.92 637.98,-21.45 628.86,-16.05 627.48,-22.92"/>
<text text-anchor="middle" x="391.75" y="-14.07" font-family="Times New Roman,serif" font-size="14.00">eps</text>
</g>
<!-- s0 -->
<g id="node4" class="node">
<title>s0</title>
<ellipse fill="none" stroke="black" cx="337" cy="-150.62" rx="27" ry="18"/>
<text text-anchor="middle" x="337" y="-145.19" font-family="Times New Roman,serif" font-size="14.00">s0</text>
</g>
<!-- s4&#45;&gt;s0 -->
<g id="edge3" class="edge">
<title>s4&#45;&gt;s0</title>
<path fill="none" stroke="black" d="M245.95,-86.94C253.98,-93.01 263.67,-100.25 272.5,-106.62 284.03,-114.93 296.89,-123.9 308.01,-131.56"/>
<polygon fill="black" stroke="black" points="305.78,-134.27 316.01,-137.05 309.74,-128.5 305.78,-134.27"/>
<text text-anchor="middle" x="282.25" y="-122.07" font-family="Times New Roman,serif" font-size="14.00">eps</text>
</g>
<!-- s2 -->
<g id="node5" class="node">
<title>s2</title>
<ellipse fill="none" stroke="black" cx="337" cy="-96.62" rx="27" ry="18"/>
<text text-anchor="middle" x="337" y="-91.19" font-family="Times New Roman,serif" font-size="14.00">s2</text>
</g>
<!-- s4&#45;&gt;s2 -->
<g id="edge4" class="edge">
<title>s4&#45;&gt;s2</title>
<path fill="none" stroke="black" d="M253.7,-79.01C267.45,-81.95 284.71,-85.65 299.87,-88.89"/>
<polygon fill="black" stroke="black" points="298.96,-92.27 309.47,-90.94 300.43,-85.43 298.96,-92.27"/>
<text text-anchor="middle" x="282.25" y="-89.07" font-family="Times New Roman,serif" font-size="14.00">eps</text>
</g>
<!-- s8 -->
<g id="node6" class="node">
<title>s8</title>
<ellipse fill="none" stroke="black" cx="775" cy="-27.62" rx="27" ry="18"/>
<text text-anchor="middle" x="775" y="-22.19" font-family="Times New Roman,serif" font-size="14.00">s8</text>
</g>
<!-- s7&#45;&gt;s8 -->
<g id="edge5" class="edge">
<title>s7&#45;&gt;s8</title>
<path fill="none" stroke="black" d="M692.8,-27.62C705.94,-27.62 722.08,-27.62 736.5,-27.62"/>
<polygon fill="black" stroke="black" points="736.09,-31.12 746.09,-27.62 736.09,-24.12 736.09,-31.12"/>
<text text-anchor="middle" x="720.25" y="-30.07" font-family="Times New Roman,serif" font-size="14.00">eps</text>
</g>
<!-- s1 -->
<g id="node7" class="node">
<title>s1</title>
<ellipse fill="none" stroke="black" cx="446.5" cy="-150.62" rx="27" ry="18"/>
<text text-anchor="middle" x="446.5" y="-145.19" font-family="Times New Roman,serif" font-size="14.00">s1</text>
</g>
<!-- s0&#45;&gt;s1 -->
<g id="edge6" class="edge">
<title>s0&#45;&gt;s1</title>
<path fill="none" stroke="black" d="M364.3,-150.62C377.44,-150.62 393.58,-150.62 408,-150.62"/>
<polygon fill="black" stroke="black" points="407.59,-154.12 417.59,-150.62 407.59,-147.12 407.59,-154.12"/>
<text text-anchor="middle" x="391.75" y="-153.07" font-family="Times New Roman,serif" font-size="14.00">a</text>
</g>
<!-- s3 -->
<g id="node8" class="node">
<title>s3</title>
<ellipse fill="none" stroke="black" cx="446.5" cy="-96.62" rx="27" ry="18"/>
<text text-anchor="middle" x="446.5" y="-91.19" font-family="Times New Roman,serif" font-size="14.00">s3</text>
</g>
<!-- s2&#45;&gt;s3 -->
<g id="edge7" class="edge">
<title>s2&#45;&gt;s3</title>
<path fill="none" stroke="black" d="M364.3,-96.62C377.44,-96.62 393.58,-96.62 408,-96.62"/>
<polygon fill="black" stroke="black" points="407.59,-100.12 417.59,-96.62 407.59,-93.12 407.59,-100.12"/>
<text text-anchor="middle" x="391.75" y="-99.07" font-family="Times New Roman,serif" font-size="14.00">b</text>
</g>
<!-- s9 -->
<g id="node9" class="node">
<title>s9</title>
<ellipse fill="none" stroke="black" cx="871" cy="-27.62" rx="27" ry="18"/>
<text text-anchor="middle" x="871" y="-22.19" font-family="Times New Roman,serif" font-size="14.00">s9</text>
</g>
<!-- s8&#45;&gt;s9 -->
<g id="edge8" class="edge">
<title>s8&#45;&gt;s9</title>
<path fill="none" stroke="black" d="M802.43,-27.62C811.72,-27.62 822.35,-27.62 832.38,-27.62"/>
<polygon fill="black" stroke="black" points="832.25,-31.12 842.25,-27.62 832.25,-24.12 832.25,-31.12"/>
<text text-anchor="middle" x="823" y="-30.07" font-family="Times New Roman,serif" font-size="14.00">a</text>
</g>
<!-- s5 -->
<g id="node10" class="node">
<title>s5</title>
<ellipse fill="none" stroke="black" cx="556" cy="-70.62" rx="27" ry="18"/>
<text text-anchor="middle" x="556" y="-65.19" font-family="Times New Roman,serif" font-size="14.00">s5</text>
</g>
<!-- s1&#45;&gt;s5 -->
<g id="edge9" class="edge">
<title>s1&#45;&gt;s5</title>
<path fill="none" stroke="black" d="M466.03,-137.89C478.8,-129.02 496.09,-116.82 511,-105.62 516.94,-101.16 523.24,-96.25 529.16,-91.57"/>
<polygon fill="black" stroke="black" points="531.23,-94.39 536.86,-85.42 526.86,-88.92 531.23,-94.39"/>
<text text-anchor="middle" x="501.25" y="-121.07" font-family="Times New Roman,serif" font-size="14.00">eps</text>
</g>
<!-- s3&#45;&gt;s5 -->
<g id="edge10" class="edge">
<title>s3&#45;&gt;s5</title>
<path fill="none" stroke="black" d="M472.43,-90.59C486.27,-87.24 503.73,-83.02 519.02,-79.32"/>
<polygon fill="black" stroke="black" points="519.83,-82.73 528.73,-76.97 518.19,-75.92 519.83,-82.73"/>
<text text-anchor="middle" x="501.25" y="-88.07" font-family="Times New Roman,serif" font-size="14.00">eps</text>
</g>
<!-- s10 -->
<g id="node11" class="node">
<title>s10</title>
<ellipse fill="none" stroke="black" cx="980.5" cy="-27.62" rx="27" ry="18"/>
<text text-anchor="middle" x="980.5" y="-22.19" font-family="Times New Roman,serif" font-size="14.00">s10</text>
</g>
<!-- s9&#45;&gt;s10 -->
<g id="edge11" class="edge">
<title>s9&#45;&gt;s10</title>
<path fill="none" stroke="black" d="M898.3,-27.62C911.44,-27.62 927.58,-27.62 942,-27.62"/>
<polygon fill="black" stroke="black" points="941.59,-31.12 951.59,-27.62 941.59,-24.12 941.59,-31.12"/>
<text text-anchor="middle" x="925.75" y="-30.07" font-family="Times New Roman,serif" font-size="14.00">eps</text>
</g>
<!-- s5&#45;&gt;s4 -->
<g id="edge13" class="edge">
<title>s5&#45;&gt;s4</title>
<path fill="none" stroke="black" d="M528.53,-70.02C483.59,-69.1 389.52,-67.67 310,-69.62 295.51,-69.97 279.58,-70.69 265.67,-71.41"/>
<polygon fill="black" stroke="black" points="265.85,-67.89 256.06,-71.93 266.23,-74.88 265.85,-67.89"/>
<text text-anchor="middle" x="391.75" y="-71.07" font-family="Times New Roman,serif" font-size="14.00">eps</text>
</g>
<!-- s5&#45;&gt;s7 -->
<g id="edge12" class="edge">
<title>s5&#45;&gt;s7</title>
<path fill="none" stroke="black" d="M579.8,-61.5C594.76,-55.51 614.58,-47.59 631.29,-40.9"/>
<polygon fill="black" stroke="black" points="632.34,-44.25 640.33,-37.29 629.74,-37.75 632.34,-44.25"/>
<text text-anchor="middle" x="610.75" y="-55.07" font-family="Times New Roman,serif" font-size="14.00">eps</text>
</g>
<!-- s11 -->
<g id="node12" class="node">
<title>s11</title>
<ellipse fill="none" stroke="black" cx="1078" cy="-27.62" rx="27" ry="18"/>
<text text-anchor="middle" x="1078" y="-22.19" font-family="Times New Roman,serif" font-size="14.00">s11</text>
</g>
<!-- s10&#45;&gt;s11 -->
<g id="edge14" class="edge">
<title>s10&#45;&gt;s11</title>
<path fill="none" stroke="black" d="M1007.85,-27.62C1017.56,-27.62 1028.75,-27.62 1039.27,-27.62"/>
<polygon fill="black" stroke="black" points="1039.22,-31.12 1049.22,-27.62 1039.22,-24.12 1039.22,-31.12"/>
<text text-anchor="middle" x="1029.25" y="-30.07" font-family="Times New Roman,serif" font-size="14.00">b</text>
</g>
<!-- s12 -->
<g id="node13" class="node">
<title>s12</title>
<ellipse fill="none" stroke="black" cx="1187.5" cy="-27.62" rx="27" ry="18"/>
<text text-anchor="middle" x="1187.5" y="-22.19" font-family="Times New Roman,serif" font-size="14.00">s12</text>
</g>
<!-- s11&#45;&gt;s12 -->
<g id="edge15" class="edge">
<title>s11&#45;&gt;s12</title>
<path fill="none" stroke="black" d="M1105.3,-27.62C1118.44,-27.62 1134.58,-27.62 1149,-27.62"/>
<polygon fill="black" stroke="black" points="1148.59,-31.12 1158.59,-27.62 1148.59,-24.12 1148.59,-31.12"/>
<text text-anchor="middle" x="1132.75" y="-30.07" font-family="Times New Roman,serif" font-size="14.00">eps</text>
</g>
<!-- s13 -->
<g id="node14" class="node">
<title>s13</title>
<ellipse fill="none" stroke="black" cx="1285.62" cy="-27.62" rx="23.62" ry="23.62"/>
<ellipse fill="none" stroke="black" cx="1285.62" cy="-27.62" rx="27.62" ry="27.62"/>
<text text-anchor="middle" x="1285.62" y="-22.19" font-family="Times New Roman,serif" font-size="14.00">s13</text>
</g>
<!-- s12&#45;&gt;s13 -->
<g id="edge16" class="edge">
<title>s12&#45;&gt;s13</title>
<path fill="none" stroke="black" d="M1214.76,-27.62C1224.56,-27.62 1235.89,-27.62 1246.54,-27.62"/>
<polygon fill="black" stroke="black" points="1246.2,-31.12 1256.2,-27.62 1246.2,-24.12 1246.2,-31.12"/>
<text text-anchor="middle" x="1236.25" y="-30.07" font-family="Times New Roman,serif" font-size="14.00">b</text>
</g>
<!-- start -->
<g id="node15" class="node">
<title>start</title>
<ellipse fill="none" stroke="black" cx="27" cy="-27.62" rx="27" ry="18"/>
<text text-anchor="middle" x="27" y="-22.19" font-family="Times New Roman,serif" font-size="14.00">start</text>
</g>
<!-- start&#45;&gt;s6 -->
<g id="edge17" class="edge">
<title>start&#45;&gt;s6</title>
<path fill="none" stroke="black" d="M54.22,-27.62C62.12,-27.62 70.94,-27.62 79.43,-27.62"/>
<polygon fill="black" stroke="black" points="79.14,-31.12 89.14,-27.62 79.14,-24.12 79.14,-31.12"/>
</g>
</g>
</svg>
